{"title":"BBC Proms 2012 - 33. Wagner, Bruckner and MacMillan","uid":7573976,"size":1211304599,"categoryP":"video","categoryS":"music_videos","magnet":"?xt=urn:btih:56f02f5fa5a2d5b3771a106f2cb7b58e837147a6&amp;dn=BBC+Proms+2012+-+33.+Wagner%2C+Bruckner+and+MacMillan&amp;tr=udp%3A%2F%2Ftracker.openbittorrent.com%3A80&amp;tr=udp%3A%2F%2Fopen.demonii.com%3A1337&amp;tr=udp%3A%2F%2Ftracker.coppersurfer.tk%3A6969&amp;tr=udp%3A%2F%2Fexodus.desync.com%3A6969","seeders":1,"leechers":2,"uploader":"deandominic","files":2,"time":1346067164,"description":"Prom 33: Wagner, Bruckner &amp; MacMillan\n\nWagner - Tristan and Isolde - Prelude (Act 1) (9 mins)\nJames MacMillan - Credo (c25 mins)\nBruckner - Symphony No. 6 in A major (55 mins)\n\nManchester Chamber Choir (Proms debut)\nNorthern Sinfonia Chorus (Proms debut)\nRushley Singers (Proms debut)\nBBC Philharmonic\nJuanjo Mena conductor\n\nJuanjo Mena presents a major world premiere before offering his acclaimed reading of a sonorous yet dangerously eruptive Bruckner symphony.\n\nFirst though, there's the emblematic love of Tristan and Isolde, expressed through music dark in sound and revolutionary in harmony. James MacMillan's works have enjoyed regular success at the Proms since the first performance of The Confession of Isobel Gowdie was given here in 1990.\n\nAs with Bruckner, MacMillan's communicative power is often associated with expressions of faith, and the unveiling of Credo, has been keenly awaited.\n\nVideo\nID                                       : 1\nFormat                                   : AVC\nFormat/Info                              : Advanced Video Codec\nFormat profile                           : &lt;a class=&quot;__cf_email__&quot; href=&quot;/cdn-cgi/l/email-protection&quot; data-cfemail=&quot;480529212608047b6678&quot;&gt;[email&amp;#160;protected]&lt;/a&gt;&lt;script data-cfhash='f9e31' type=&quot;text/javascript&quot;&gt;\n/* &lt;![CDATA[ */!function(){try{var t=&quot;currentScript&quot;in document?document.currentScript:function(){for(var t=document.getElementsByTagName(&quot;script&quot;),e=t.length;e--;)if(t[e].getAttribute(&quot;data-cfhash&quot;))return t[e]}();if(t&amp;&amp;t.previousSibling){var e,r,n,i,c=t.previousSibling,a=c.getAttribute(&quot;data-cfemail&quot;);if(a){for(e=&quot;&quot;,r=parseInt(a.substr(0,2),16),n=2;a.length-n;n+=2)i=parseInt(a.substr(n,2),16)^r,e+=String.fromCharCode(i);e=document.createTextNode(e),c.parentNode.replaceChild(e,c)}t.parentNode.removeChild(t);}}catch(u){}}()/* ]]&gt; */&lt;/script&gt;\nFormat settings, CABAC                   : Yes\nFormat settings, ReFrames                : 4 frames\nCodec ID                                 : avc1\nCodec ID/Info                            : Advanced Video Coding\nDuration                                 : 1h 47mn\nBit rate mode                            : Constant\nBit rate                                 : 1 404 Kbps\nWidth                                    : 832 pixels\nHeight                                   : 468 pixels\nDisplay aspect ratio                     : 16:9\nFrame rate mode                          : Constant\nFrame rate                               : 25.000 fps\nStandard                                 : PAL\nColor space                              : YUV\nChroma subsampling                       : 4:2:0\nBit depth                                : 8 bits\nScan type                                : Progressive\nBits/(Pixel*Frame)                       : 0.144\nStream size                              : 1.05 GiB (93%)\n\nAudio\nID                                       : 2\nFormat                                   : AAC\nFormat/Info                              : Advanced Audio Codec\nFormat profile                           : HE-AAC / LC\nCodec ID                                 : 40\nDuration                                 : 1h 47mn\nBit rate mode                            : Constant\nBit rate                                 : 96.0 Kbps\nChannel(s)                               : 2 channels\nChannel positions                        : Front: L R\nSampling rate                            : 48.0 KHz / 24.0 KHz\nCompression mode                         : Lossy\nStream size                              : 72.8 MiB (6%)\n","torrent":{"xt":"urn:btih:56f02f5fa5a2d5b3771a106f2cb7b58e837147a6","amp;dn":"BBC+Proms+2012+-+33.+Wagner%2C+Bruckner+and+MacMillan","amp;tr":["udp%3A%2F%2Ftracker.openbittorrent.com%3A80","udp%3A%2F%2Fopen.demonii.com%3A1337","udp%3A%2F%2Ftracker.coppersurfer.tk%3A6969","udp%3A%2F%2Fexodus.desync.com%3A6969"],"infoHash":"56f02f5fa5a2d5b3771a106f2cb7b58e837147a6","infoHashBuffer":{"type":"Buffer","data":[86,240,47,95,165,162,213,179,119,26,16,111,44,183,181,142,131,113,71,166]},"announce":[],"urlList":[]}}